<svg width="650" height="192" viewBox="0 0 650 192" fill="none" xmlns="http://www.w3.org/2000/svg">
<g filter="url(#filter0_d)">
<path d="M134.009 4.8866L122.509 32.3866C122.927 31.3866 121.813 27.7866 114.009 21.3866C106.205 14.9866 90.0908 16.0533 83.009 17.3866C77.3423 17.3866 62.209 23.2866 47.009 46.8866C27.409 68.8866 23.8423 103.387 24.509 117.887C23.3423 123.053 24.709 137.687 39.509 154.887C45.009 163.387 63.509 166.887 71.509 167.387C77.909 167.787 90.1756 161.22 95.509 157.887C98.8423 154.387 104.509 146.887 100.509 144.887C96.509 142.887 95.509 140.387 95.509 139.387C96.3423 136.553 100.309 130.887 109.509 130.887C121.009 134.387 122.509 139.887 121.009 152.387C119.509 164.887 102.009 173.887 100.509 174.887C99.009 175.887 73.509 183.387 54.009 180.887C34.509 178.387 17.009 164.887 5.50898 142.887C-3.69102 125.287 0.675647 95.5533 4.00898 82.8866C6.84231 73.8866 16.7632 54.3866 29 39.3866C44.5 20.3866 60.509 9.8866 72.509 3.3866C84.509 -3.1134 110.009 1.3866 116.509 3.3866C121.709 4.9866 130.342 5.05327 134.009 4.8866Z" transform="translate(5 1)" fill="#221E1F"/>
<path d="M279.009 27.3866C280.609 17.3866 290.009 14.2199 294.509 13.8866C297.342 13.5533 302.909 15.3866 302.509 25.3866C302.109 35.3866 293.676 38.8866 289.509 39.3866C285.342 39.5533 277.409 37.3866 279.009 27.3866Z" transform="translate(5 1)" fill="#221E1F"/>
<path d="M292.509 131.887C303.309 130.287 307.009 137.22 307.509 140.887C307.842 143.887 307.309 149.887 302.509 149.887C294.109 148.287 293.342 153.553 294.009 156.387C293.509 159.72 296.009 166.687 310.009 167.887C329.609 173.087 346.176 141.053 352.009 124.387L388.509 9.8866L383.509 2.3866H417.009L413.009 85.8866L464.509 3.8866H499.509C492.709 7.8866 490.342 13.2199 490.009 15.3866L449.509 140.887L454.009 146.887L420.509 145.387L428.509 139.887L460.009 40.8866L390.009 146.887L395.509 40.8866C386.342 72.7199 364.809 141.087 352.009 159.887C343.209 176.687 319.342 181.553 308.509 181.887C303.676 182.053 291.809 180.287 283.009 171.887C274.209 163.487 275.342 149.72 277.009 143.887C277.676 140.553 281.709 133.487 292.509 131.887Z" transform="translate(5 1)" fill="#221E1F"/>
<path fill-rule="evenodd" clip-rule="evenodd" d="M45.509 114.887C47.109 138.087 68.8423 130.553 79.509 123.887C81.109 129.887 86.1756 131.053 88.509 130.887C93.3423 130.887 104.809 128.887 112.009 120.887C114.009 124.487 115.842 127.387 116.509 128.387C122.342 131.22 137.209 133.087 150.009 117.887C155.209 136.287 175.509 131.553 185.009 126.887C190.676 122.887 202.709 110.887 205.509 94.8866C212.309 80.4866 208.342 66.2199 205.509 60.8866C201.509 55.2199 189.109 46.6866 171.509 57.8866C153.909 69.0866 148.509 96.2199 148.009 108.387C149.009 108.387 148.609 109.687 139.009 114.887C127.809 121.687 128.676 113.387 130.509 108.387L165.509 0.886592C160.676 1.71993 148.909 4.0866 140.509 6.8866C144.509 12.0866 144.176 16.0533 143.509 17.3866L116.009 101.387C113.842 106.887 107.709 117.887 100.509 117.887C93.309 117.887 94.1756 111.553 95.509 108.387L114.009 54.3866H98.009L95.509 60.8866C93.8423 57.2199 88.609 50.4866 81.009 52.8866C73.809 52.0866 64.3423 61.8866 60.509 66.8866C54.8423 73.2199 43.909 91.6866 45.509 114.887ZM86.009 66.8866C83.009 65.8866 75.909 66.7866 71.509 78.3866C66.009 92.8866 60.509 107.387 64.509 114.887C67.709 120.887 74.509 114.72 77.509 110.887C83.1756 98.5533 92.809 72.4866 86.009 66.8866ZM173.509 78.3866C179.909 66.7866 187.509 65.8866 190.509 66.8866C193.309 70.4866 193.676 74.7199 193.509 76.3866C192.842 82.5533 188.909 98.3866 178.509 112.387C170.909 124.387 166.676 116.387 165.509 110.887C164.676 106.72 165.109 94.3866 173.509 78.3866Z" transform="translate(5 1)" fill="#221E1F"/>
<path fill-rule="evenodd" clip-rule="evenodd" d="M205.509 130.887H222.009L236.009 88.3866C238.509 83.0533 245.309 73.1866 252.509 76.3866C256.509 81.9866 261.509 75.7199 263.509 71.8866C264.176 68.5533 266.409 62.8866 270.009 66.8866C271.209 74.4866 260.842 100.387 255.509 112.387C254.342 118.053 254.709 129.687 265.509 130.887C276.309 132.087 289.009 122.72 294.009 117.887C296.676 123.553 305.509 133.887 319.509 129.887C333.509 125.887 343.009 113.22 346.009 107.387C346.509 103.72 345.509 97.6866 337.509 102.887C332.709 112.887 324.176 116.387 320.509 116.887C315.342 117.72 306.009 115.087 310.009 97.8866C335.609 95.4866 347.676 83.8866 350.509 78.3866C353.176 71.5533 354.609 57.1866 339.009 54.3866C319.409 51.1866 304.176 70.3866 299.009 80.3866C297.176 85.7199 293.309 98.9866 292.509 109.387C281.709 117.387 277.676 117.72 277.009 116.887C274.342 118.053 270.609 116.187 277.009 99.3866C283.409 82.5866 290.009 61.3866 292.509 52.8866L270.009 58.8866C269.509 59.8866 267.209 60.3866 262.009 54.3866C256.009 51.1866 245.509 62.7199 241.009 68.8866L245.009 52.8866L222.009 58.8866C224.009 60.2199 227.009 65.2866 223.009 74.8866C219.009 84.4866 209.676 116.22 205.509 130.887ZM333.509 80.3866C329.109 84.7866 318.009 86.5533 313.009 86.8866C314.176 82.8866 318.409 73.6866 326.009 68.8866C333.609 64.0866 336.842 66.8866 337.509 68.8866C338.842 69.8866 339.909 73.5866 333.509 80.3866Z" transform="translate(5 1)" fill="#221E1F"/>
<path fill-rule="evenodd" clip-rule="evenodd" d="M486.509 130.387C468.909 127.187 474.842 99.3866 480.009 85.8866C480.009 83.3866 483.209 74.7866 496.009 60.3866C511.209 46.7866 521.676 54.7199 525.009 60.3866L527.509 54.3866H544.009L528.509 98.3866C525.509 104.553 521.109 116.887 527.509 116.887C531.109 120.487 540.009 112.053 544.009 107.387L559.009 64.3866H551.009C548.676 64.8866 544.709 64.7866 547.509 60.3866C553.109 59.1866 574.509 41.2199 584.509 32.3866L578.009 54.3866H591.009L588.009 64.3866H575.009C572.009 73.3866 565.209 94.2866 562.009 105.887C558.809 114.287 563.342 116.72 566.009 116.887C568.509 117.553 574.909 116.887 580.509 108.887C579.709 100.887 583.509 88.5533 585.509 83.3866C587.676 77.5533 595.509 63.9866 609.509 56.3866C623.509 48.7866 635.009 54.8866 639.009 58.8866C641.842 64.0533 640.509 73.8866 633.509 83.3866C625.909 94.5866 606.676 97.3866 598.009 97.3866C597.509 97.3866 596.809 99.6866 598.009 108.887C599.209 118.087 607.509 118.053 611.509 116.887C615.509 115.553 624.409 110.787 628.009 102.387C634.409 97.9866 636.009 102.887 636.009 105.887C632.842 113.387 622.609 128.787 607.009 130.387C591.409 131.987 584.509 123.387 583.009 118.887C579.009 123.22 568.309 131.887 557.509 131.887C546.709 131.887 543.009 124.553 542.509 120.887C537.509 124.72 525.909 132.287 519.509 131.887C513.109 131.487 509.509 126.72 508.509 124.387C505.509 127.387 496.909 132.787 486.509 130.387ZM498.009 86.8866C494.509 96.2199 489.209 115.287 496.009 116.887C502.809 118.487 507.176 111.22 508.509 107.387C511.509 100.887 517.709 85.7866 518.509 77.3866C520.109 70.1866 516.842 67.0533 515.009 66.3866C511.509 66.3866 503.209 70.4866 498.009 86.8866ZM608.009 73.8866C614.809 64.6866 623.176 66.0533 626.509 67.8866C627.842 69.8866 628.309 75.1866 619.509 80.3866C612.709 85.5866 604.342 86.8866 601.009 86.8866C600.509 86.3866 601.209 83.0866 608.009 73.8866Z" transform="translate(5 1)" fill="#221E1F"/>
</g>
<defs>
<filter id="filter0_d" x="0.5" y="0.499878" width="649.4" height="190.897" filterUnits="userSpaceOnUse" color-interpolation-filters="sRGB">
<feFlood flood-opacity="0" result="BackgroundImageFix"/>
<feColorMatrix in="SourceAlpha" type="matrix" values="0 0 0 0 0 0 0 0 0 0 0 0 0 0 0 0 0 0 255 0"/>
<feOffset dy="4"/>
<feGaussianBlur stdDeviation="2"/>
<feColorMatrix type="matrix" values="0 0 0 0 0 0 0 0 0 0 0 0 0 0 0 0 0 0 0.25 0"/>
<feBlend mode="normal" in2="BackgroundImageFix" result="effect1_dropShadow"/>
<feBlend mode="normal" in="SourceGraphic" in2="effect1_dropShadow" result="shape"/>
</filter>
</defs>
</svg>
